<svg version="1.1" viewBox="0.0 0.0 960.0 540.0" fill="none" stroke="none" stroke-linecap="square" stroke-miterlimit="10" xmlns:xlink="http://www.w3.org/1999/xlink" xmlns="http://www.w3.org/2000/svg"><clipPath id="p.0"><path d="m0 0l960.0 0l0 540.0l-960.0 0l0 -540.0z" clip-rule="nonzero"/></clipPath><g clip-path="url(#p.0)"><path fill="#f3f3f3" d="m0 0l960.0 0l0 540.0l-960.0 0z" fill-rule="evenodd"/><path fill="#000000" fill-opacity="0.0" d="m190.26247 100.0l582.2362 0l0 328.8819l-582.2362 0z" fill-rule="evenodd"/><path stroke="#3d85c6" stroke-width="4.0" stroke-linejoin="round" stroke-linecap="butt" d="m190.26247 100.0l582.2362 0l0 328.8819l-582.2362 0z" fill-rule="evenodd"/><path fill="#000000" fill-opacity="0.0" d="m190.26247 68.88189l76.66142 0l0 31.11811l-76.66142 0z" fill-rule="evenodd"/><path fill="#3d85c6" d="m200.63747 91.36095l0 -13.359375l9.15625 0l0 2.265625l-6.453125 0l0 3.15625l5.5625 0l0 2.265625l-5.5625 0l0 5.671875l-2.703125 0zm11.364731 -10.984375l0 -2.375l2.5625 0l0 2.375l-2.5625 0zm0 10.984375l0 -9.671875l2.5625 0l0 9.671875l-2.5625 0zm4.948929 0.640625l2.921875 0.359375q0.0625 0.5 0.328125 0.6875q0.375 0.28125 1.15625 0.28125q1.0 0 1.5 -0.296875q0.328125 -0.203125 0.515625 -0.65625q0.109375 -0.3125 0.109375 -1.171875l0 -1.40625q-1.140625 1.5625 -2.890625 1.5625q-1.953125 0 -3.09375 -1.65625q-0.890625 -1.296875 -0.890625 -3.234375q0 -2.4375 1.171875 -3.71875q1.171875 -1.28125 2.90625 -1.28125q1.796875 0 2.96875 1.578125l0 -1.359375l2.390625 0l0 8.671875q0 1.71875 -0.28125 2.5625q-0.28125 0.84375 -0.796875 1.328125q-0.5 0.484375 -1.359375 0.75q-0.84375 0.28125 -2.15625 0.28125q-2.453125 0 -3.484375 -0.84375q-1.03125 -0.84375 -1.03125 -2.125q0 -0.140625 0.015625 -0.3125zm2.28125 -5.671875q0 1.53125 0.59375 2.25q0.59375 0.71875 1.46875 0.71875q0.9375 0 1.578125 -0.734375q0.65625 -0.734375 0.65625 -2.171875q0 -1.515625 -0.625 -2.234375q-0.609375 -0.734375 -1.5625 -0.734375q-0.921875 0 -1.515625 0.71875q-0.59375 0.71875 -0.59375 2.1875zm15.708481 5.03125l0 -1.453125q-0.53125 0.78125 -1.390625 1.234375q-0.859375 0.4375 -1.8125 0.4375q-0.96875 0 -1.75 -0.421875q-0.765625 -0.4375 -1.125 -1.203125q-0.34375 -0.78125 -0.34375 -2.140625l0 -6.125l2.5625 0l0 4.4375q0 2.046875 0.140625 2.515625q0.140625 0.453125 0.515625 0.71875q0.375 0.265625 0.953125 0.265625q0.65625 0 1.171875 -0.359375q0.515625 -0.359375 0.703125 -0.890625q0.203125 -0.53125 0.203125 -2.609375l0 -4.078125l2.546875 0l0 9.671875l-2.375 0zm7.489731 0l-2.5625 0l0 -9.671875l2.375 0l0 1.375q0.609375 -0.984375 1.09375 -1.28125q0.484375 -0.3125 1.109375 -0.3125q0.875 0 1.6875 0.484375l-0.796875 2.234375q-0.640625 -0.421875 -1.203125 -0.421875q-0.53125 0 -0.90625 0.296875q-0.375 0.296875 -0.59375 1.078125q-0.203125 0.765625 -0.203125 3.234375l0 2.984375zm10.400894 -3.078125l2.546875 0.421875q-0.484375 1.40625 -1.546875 2.140625q-1.0625 0.734375 -2.65625 0.734375q-2.515625 0 -3.734375 -1.65625q-0.953125 -1.3125 -0.953125 -3.328125q0 -2.40625 1.25 -3.765625q1.265625 -1.359375 3.1875 -1.359375q2.15625 0 3.40625 1.421875q1.25 1.421875 1.1875 4.375l-6.40625 0q0.03125 1.140625 0.609375 1.78125q0.59375 0.625 1.484375 0.625q0.59375 0 1.0 -0.328125q0.421875 -0.328125 0.625 -1.0625zm0.15625 -2.59375q-0.03125 -1.109375 -0.578125 -1.6875q-0.546875 -0.578125 -1.328125 -0.578125q-0.84375 0 -1.390625 0.609375q-0.546875 0.609375 -0.53125 1.65625l3.828125 0z" fill-rule="nonzero"/><path fill="#000000" fill-opacity="0.0" d="m222.13649 141.22835l239.55904 0l0 270.11023l-239.55904 0z" fill-rule="evenodd"/><path stroke="#e69138" stroke-width="4.0" stroke-linejoin="round" stroke-linecap="butt" d="m222.13649 141.22835l239.55904 0l0 270.11023l-239.55904 0z" fill-rule="evenodd"/><path fill="#000000" fill-opacity="0.0" d="m501.06824 141.22835l239.55908 0l0 268.69293l-239.55908 0z" fill-rule="evenodd"/><path stroke="#e69138" stroke-width="4.0" stroke-linejoin="round" stroke-linecap="butt" d="m501.06824 141.22835l239.55908 0l0 268.69293l-239.55908 0z" fill-rule="evenodd"/><path fill="#000000" fill-opacity="0.0" d="m222.13649 108.0l129.22835 0l0 31.118103l-129.22835 0z" fill-rule="evenodd"/><path fill="#e69138" d="m231.80836 126.1353l2.625 -0.25q0.234375 1.3125 0.953125 1.9375q0.734375 0.609375 1.96875 0.609375q1.296875 0 1.953125 -0.546875q0.671875 -0.546875 0.671875 -1.28125q0 -0.484375 -0.28125 -0.8125q-0.28125 -0.328125 -0.96875 -0.578125q-0.484375 -0.15625 -2.171875 -0.578125q-2.15625 -0.546875 -3.03125 -1.328125q-1.234375 -1.09375 -1.234375 -2.6875q0 -1.015625 0.578125 -1.90625q0.578125 -0.890625 1.65625 -1.34375q1.09375 -0.46875 2.640625 -0.46875q2.515625 0 3.78125 1.109375q1.28125 1.09375 1.34375 2.9375l-2.703125 0.109375q-0.171875 -1.03125 -0.75 -1.46875q-0.5625 -0.453125 -1.703125 -0.453125q-1.171875 0 -1.84375 0.46875q-0.421875 0.3125 -0.421875 0.84375q0 0.46875 0.40625 0.796875q0.5 0.4375 2.46875 0.90625q1.96875 0.453125 2.90625 0.953125q0.953125 0.5 1.484375 1.359375q0.53125 0.859375 0.53125 2.125q0 1.15625 -0.640625 2.15625q-0.640625 1.0 -1.8125 1.484375q-1.15625 0.484375 -2.890625 0.484375q-2.53125 0 -3.890625 -1.171875q-1.359375 -1.171875 -1.625 -3.40625zm19.474823 4.34375l0 -1.453125q-0.53125 0.78125 -1.390625 1.234375q-0.859375 0.4375 -1.8125 0.4375q-0.96875 0 -1.75 -0.421875q-0.765625 -0.4375 -1.125 -1.203125q-0.34375 -0.78125 -0.34375 -2.140625l0 -6.125l2.5625 0l0 4.4375q0 2.046875 0.140625 2.515625q0.140625 0.453125 0.515625 0.71875q0.375 0.265625 0.953125 0.265625q0.65625 0 1.171875 -0.359375q0.515625 -0.359375 0.703125 -0.890625q0.203125 -0.53125 0.203125 -2.609375l0 -4.078125l2.546875 0l0 9.671875l-2.375 0zm4.927231 0l0 -13.359375l2.5625 0l0 4.8125q1.171875 -1.34375 2.796875 -1.34375q1.765625 0 2.921875 1.28125q1.15625 1.28125 1.15625 3.671875q0 2.484375 -1.1875 3.828125q-1.171875 1.328125 -2.859375 1.328125q-0.828125 0 -1.640625 -0.40625q-0.796875 -0.421875 -1.375 -1.234375l0 1.421875l-2.375 0zm2.53125 -5.046875q0 1.5 0.484375 2.21875q0.65625 1.03125 1.765625 1.03125q0.84375 0 1.4375 -0.71875q0.59375 -0.734375 0.59375 -2.296875q0 -1.65625 -0.609375 -2.390625q-0.59375 -0.734375 -1.53125 -0.734375q-0.921875 0 -1.53125 0.71875q-0.609375 0.71875 -0.609375 2.171875zm8.895966 -4.625l2.390625 0l0 1.421875q0.46875 -0.734375 1.25 -1.1875q0.796875 -0.453125 1.765625 -0.453125q1.6875 0 2.859375 1.328125q1.171875 1.3125 1.171875 3.671875q0 2.421875 -1.1875 3.765625q-1.1875 1.34375 -2.859375 1.34375q-0.8125 0 -1.46875 -0.3125q-0.640625 -0.328125 -1.359375 -1.09375l0 4.875l-2.5625 0l0 -13.359375zm2.53125 4.671875q0 1.625 0.640625 2.40625q0.65625 0.78125 1.578125 0.78125q0.90625 0 1.484375 -0.71875q0.59375 -0.71875 0.59375 -2.34375q0 -1.515625 -0.609375 -2.25q-0.609375 -0.75 -1.515625 -0.75q-0.9375 0 -1.5625 0.734375q-0.609375 0.71875 -0.609375 2.140625zm8.942871 5.0l0 -13.359375l2.5625 0l0 13.359375l-2.5625 0zm4.5895386 -4.96875q0 -1.28125 0.625 -2.46875q0.625 -1.203125 1.78125 -1.828125q1.15625 -0.625 2.578125 -0.625q2.1875 0 3.59375 1.421875q1.40625 1.421875 1.40625 3.609375q0 2.1875 -1.421875 3.640625q-1.421875 1.4375 -3.5625 1.4375q-1.328125 0 -2.546875 -0.59375q-1.203125 -0.609375 -1.828125 -1.765625q-0.625 -1.171875 -0.625 -2.828125zm2.625 0.125q0 1.453125 0.671875 2.21875q0.6875 0.75 1.6875 0.75q1.0 0 1.671875 -0.75q0.6875 -0.765625 0.6875 -2.234375q0 -1.421875 -0.6875 -2.1875q-0.671875 -0.765625 -1.671875 -0.765625q-1.0 0 -1.6875 0.765625q-0.671875 0.765625 -0.671875 2.203125zm13.802246 -4.828125l0 2.03125l-1.75 0l0 3.90625q0 1.1875 0.046875 1.390625q0.046875 0.1875 0.21875 0.3125q0.1875 0.125 0.4375 0.125q0.359375 0 1.03125 -0.25l0.21875 2.0q-0.890625 0.375 -2.015625 0.375q-0.703125 0 -1.265625 -0.234375q-0.546875 -0.234375 -0.8125 -0.59375q-0.25 -0.375 -0.34375 -1.0q-0.09375 -0.453125 -0.09375 -1.8125l0 -4.21875l-1.171875 0l0 -2.03125l1.171875 0l0 -1.921875l2.578125 -1.5l0 3.421875l1.75 0zm12.958466 9.671875l-2.5625 0l0 -9.640625q-1.40625 1.3125 -3.3125 1.9375l0 -2.328125q1.015625 -0.328125 2.1875 -1.234375q1.171875 -0.921875 1.609375 -2.140625l2.078125 0l0 13.40625z" fill-rule="nonzero"/><path fill="#000000" fill-opacity="0.0" d="m501.06824 108.0l129.22833 0l0 31.118103l-129.22833 0z" fill-rule="evenodd"/><path fill="#e69138" d="m510.7401 126.1353l2.625 -0.25q0.234375 1.3125 0.953125 1.9375q0.734375 0.609375 1.96875 0.609375q1.296875 0 1.953125 -0.546875q0.671875 -0.546875 0.671875 -1.28125q0 -0.484375 -0.28125 -0.8125q-0.28125 -0.328125 -0.96875 -0.578125q-0.484375 -0.15625 -2.171875 -0.578125q-2.15625 -0.546875 -3.03125 -1.328125q-1.234375 -1.09375 -1.234375 -2.6875q0 -1.015625 0.578125 -1.90625q0.578125 -0.890625 1.65625 -1.34375q1.09375 -0.46875 2.640625 -0.46875q2.515625 0 3.78125 1.109375q1.28125 1.09375 1.34375 2.9375l-2.703125 0.109375q-0.171875 -1.03125 -0.75 -1.46875q-0.5625 -0.453125 -1.703125 -0.453125q-1.171875 0 -1.84375 0.46875q-0.421875 0.3125 -0.421875 0.84375q0 0.46875 0.40625 0.796875q0.5 0.4375 2.46875 0.90625q1.96875 0.453125 2.90625 0.953125q0.953125 0.5 1.484375 1.359375q0.53125 0.859375 0.53125 2.125q0 1.15625 -0.640625 2.15625q-0.640625 1.0 -1.8125 1.484375q-1.15625 0.484375 -2.890625 0.484375q-2.53125 0 -3.890625 -1.171875q-1.359375 -1.171875 -1.625 -3.40625zm19.474854 4.34375l0 -1.453125q-0.53125 0.78125 -1.390625 1.234375q-0.859375 0.4375 -1.8125 0.4375q-0.96875 0 -1.75 -0.421875q-0.765625 -0.4375 -1.125 -1.203125q-0.34375 -0.78125 -0.34375 -2.140625l0 -6.125l2.5625 0l0 4.4375q0 2.046875 0.140625 2.515625q0.140625 0.453125 0.515625 0.71875q0.375 0.265625 0.953125 0.265625q0.65625 0 1.171875 -0.359375q0.515625 -0.359375 0.703125 -0.890625q0.203125 -0.53125 0.203125 -2.609375l0 -4.078125l2.546875 0l0 9.671875l-2.375 0zm4.927185 0l0 -13.359375l2.5625 0l0 4.8125q1.171875 -1.34375 2.796875 -1.34375q1.765625 0 2.921875 1.28125q1.15625 1.28125 1.15625 3.671875q0 2.484375 -1.1875 3.828125q-1.171875 1.328125 -2.859375 1.328125q-0.828125 0 -1.640625 -0.40625q-0.796875 -0.421875 -1.375 -1.234375l0 1.421875l-2.375 0zm2.53125 -5.046875q0 1.5 0.484375 2.21875q0.65625 1.03125 1.765625 1.03125q0.84375 0 1.4375 -0.71875q0.59375 -0.734375 0.59375 -2.296875q0 -1.65625 -0.609375 -2.390625q-0.59375 -0.734375 -1.53125 -0.734375q-0.921875 0 -1.53125 0.71875q-0.609375 0.71875 -0.609375 2.171875zm8.895996 -4.625l2.390625 0l0 1.421875q0.46875 -0.734375 1.25 -1.1875q0.796875 -0.453125 1.765625 -0.453125q1.6875 0 2.859375 1.328125q1.171875 1.3125 1.171875 3.671875q0 2.421875 -1.1875 3.765625q-1.1875 1.34375 -2.859375 1.34375q-0.8125 0 -1.46875 -0.3125q-0.640625 -0.328125 -1.359375 -1.09375l0 4.875l-2.5625 0l0 -13.359375zm2.53125 4.671875q0 1.625 0.640625 2.40625q0.65625 0.78125 1.578125 0.78125q0.90625 0 1.484375 -0.71875q0.59375 -0.71875 0.59375 -2.34375q0 -1.515625 -0.609375 -2.25q-0.609375 -0.75 -1.515625 -0.75q-0.9375 0 -1.5625 0.734375q-0.609375 0.71875 -0.609375 2.140625zm8.942871 5.0l0 -13.359375l2.5625 0l0 13.359375l-2.5625 0zm4.5895386 -4.96875q0 -1.28125 0.625 -2.46875q0.625 -1.203125 1.78125 -1.828125q1.15625 -0.625 2.578125 -0.625q2.1875 0 3.59375 1.421875q1.40625 1.421875 1.40625 3.609375q0 2.1875 -1.421875 3.640625q-1.421875 1.4375 -3.5625 1.4375q-1.328125 0 -2.546875 -0.59375q-1.203125 -0.609375 -1.828125 -1.765625q-0.625 -1.171875 -0.625 -2.828125zm2.625 0.125q0 1.453125 0.671875 2.21875q0.6875 0.75 1.6875 0.75q1.0 0 1.671875 -0.75q0.6875 -0.765625 0.6875 -2.234375q0 -1.421875 -0.6875 -2.1875q-0.671875 -0.765625 -1.671875 -0.765625q-1.0 0 -1.6875 0.765625q-0.671875 0.765625 -0.671875 2.203125zm13.802246 -4.828125l0 2.03125l-1.75 0l0 3.90625q0 1.1875 0.046875 1.390625q0.046875 0.1875 0.21875 0.3125q0.1875 0.125 0.4375 0.125q0.359375 0 1.03125 -0.25l0.21875 2.0q-0.890625 0.375 -2.015625 0.375q-0.703125 0 -1.265625 -0.234375q-0.546875 -0.234375 -0.8125 -0.59375q-0.25 -0.375 -0.34375 -1.0q-0.09375 -0.453125 -0.09375 -1.8125l0 -4.21875l-1.171875 0l0 -2.03125l1.171875 0l0 -1.921875l2.578125 -1.5l0 3.421875l1.75 0zm15.052246 7.296875l0 2.375l-8.96875 0q0.140625 -1.34375 0.859375 -2.546875q0.734375 -1.21875 2.890625 -3.203125q1.734375 -1.625 2.125 -2.1875q0.53125 -0.796875 0.53125 -1.578125q0 -0.84375 -0.46875 -1.296875q-0.453125 -0.46875 -1.265625 -0.46875q-0.796875 0 -1.28125 0.484375q-0.46875 0.46875 -0.546875 1.59375l-2.546875 -0.25q0.234375 -2.109375 1.421875 -3.03125q1.203125 -0.921875 3.015625 -0.921875q1.96875 0 3.09375 1.0625q1.140625 1.0625 1.140625 2.65625q0 0.890625 -0.328125 1.71875q-0.3125 0.8125 -1.015625 1.703125q-0.46875 0.59375 -1.6875 1.703125q-1.203125 1.109375 -1.53125 1.484375q-0.3125 0.359375 -0.515625 0.703125l5.078125 0z" fill-rule="nonzero"/><path fill="#b6d7a8" d="m293.97745 270.72174l15.275604 0l0 104.47244l-15.275604 0z" fill-rule="evenodd"/><path stroke="#b6d7a8" stroke-width="4.0" stroke-linejoin="round" stroke-linecap="butt" d="m293.97745 270.72174l15.275604 0l0 104.47244l-15.275604 0z" fill-rule="evenodd"/><path fill="#b6d7a8" d="m309.23602 245.38068l15.275604 0l0 131.65353l-15.275604 0z" fill-rule="evenodd"/><path stroke="#b6d7a8" stroke-width="4.0" stroke-linejoin="round" stroke-linecap="butt" d="m309.23602 245.38068l15.275604 0l0 131.65353l-15.275604 0z" fill-rule="evenodd"/><path fill="#b6d7a8" d="m323.9063 222.47504l15.275604 0l0 154.58267l-15.275604 0z" fill-rule="evenodd"/><path stroke="#b6d7a8" stroke-width="4.0" stroke-linejoin="round" stroke-linecap="butt" d="m323.9063 222.47504l15.275604 0l0 154.58267l-15.275604 0z" fill-rule="evenodd"/><path fill="#b6d7a8" d="m339.16556 199.58093l15.275604 0l0 175.62204l-15.275604 0z" fill-rule="evenodd"/><path stroke="#b6d7a8" stroke-width="4.0" stroke-linejoin="round" stroke-linecap="butt" d="m339.16556 199.58093l15.275604 0l0 175.62204l-15.275604 0z" fill-rule="evenodd"/><path fill="#b6d7a8" d="m381.9846 295.77423l15.275604 0l0 79.433075l-15.275604 0z" fill-rule="evenodd"/><path stroke="#b6d7a8" stroke-width="4.0" stroke-linejoin="round" stroke-linecap="butt" d="m381.9846 295.77423l15.275604 0l0 79.433075l-15.275604 0z" fill-rule="evenodd"/><path fill="#b6d7a8" d="m369.68454 245.38068l15.275604 0l0 131.65353l-15.275604 0z" fill-rule="evenodd"/><path stroke="#b6d7a8" stroke-width="4.0" stroke-linejoin="round" stroke-linecap="butt" d="m369.68454 245.38068l15.275604 0l0 131.65353l-15.275604 0z" fill-rule="evenodd"/><path fill="#b6d7a8" d="m354.7191 222.47504l15.275574 0l0 154.58267l-15.275574 0z" fill-rule="evenodd"/><path stroke="#b6d7a8" stroke-width="4.0" stroke-linejoin="round" stroke-linecap="butt" d="m354.7191 222.47504l15.275574 0l0 154.58267l-15.275574 0z" fill-rule="evenodd"/><path fill="#b6d7a8" d="m277.46136 299.15167l15.275604 0l0 76.06299l-15.275604 0z" fill-rule="evenodd"/><path stroke="#b6d7a8" stroke-width="4.0" stroke-linejoin="round" stroke-linecap="butt" d="m277.46136 299.15167l15.275604 0l0 76.06299l-15.275604 0z" fill-rule="evenodd"/><path fill="#b6d7a8" d="m260.94528 321.07422l15.275604 0l0 54.141724l-15.275604 0z" fill-rule="evenodd"/><path stroke="#b6d7a8" stroke-width="4.0" stroke-linejoin="round" stroke-linecap="butt" d="m260.94528 321.07422l15.275604 0l0 54.141724l-15.275604 0z" fill-rule="evenodd"/><path fill="#b6d7a8" d="m243.5408 344.10275l15.275574 0l0 31.118134l-15.275574 0z" fill-rule="evenodd"/><path stroke="#b6d7a8" stroke-width="4.0" stroke-linejoin="round" stroke-linecap="butt" d="m243.5408 344.10275l15.275574 0l0 31.118134l-15.275574 0z" fill-rule="evenodd"/><path fill="#b6d7a8" d="m395.9775 317.38846l15.275574 0l0 57.82675l-15.275574 0z" fill-rule="evenodd"/><path stroke="#b6d7a8" stroke-width="4.0" stroke-linejoin="round" stroke-linecap="butt" d="m395.9775 317.38846l15.275574 0l0 57.82675l-15.275574 0z" fill-rule="evenodd"/><path fill="#b6d7a8" d="m411.3843 334.05536l15.275604 0l0 41.165344l-15.275604 0z" fill-rule="evenodd"/><path stroke="#b6d7a8" stroke-width="4.0" stroke-linejoin="round" stroke-linecap="butt" d="m411.3843 334.05536l15.275604 0l0 41.165344l-15.275604 0z" fill-rule="evenodd"/><path fill="#b6d7a8" d="m425.0167 344.10275l15.275574 0l0 31.118134l-15.275574 0z" fill-rule="evenodd"/><path stroke="#b6d7a8" stroke-width="4.0" stroke-linejoin="round" stroke-linecap="butt" d="m425.0167 344.10275l15.275574 0l0 31.118134l-15.275574 0z" fill-rule="evenodd"/><path fill="#000000" fill-opacity="0.0" d="m243.5408 327.09256c4.7816315 -12.426697 15.198547 -69.87088 28.68985 -74.56032c13.4913025 -4.689438 35.521637 58.615555 52.257996 46.42366c16.736359 -12.191895 28.862122 -126.60889 48.160156 -119.575c19.298004 7.03389 56.35666 134.81529 67.62799 161.77834" fill-rule="evenodd"/><path stroke="#72a75b" stroke-width="3.0" stroke-linejoin="round" stroke-linecap="butt" d="m243.5408 327.09256c4.7816315 -12.426697 15.198547 -69.87088 28.68985 -74.56032c13.4913025 -4.689438 35.521637 58.615555 52.257996 46.42366c16.736359 -12.191895 28.862122 -126.60889 48.160156 -119.575c19.298004 7.03389 56.35666 134.81529 67.62799 161.77834" fill-rule="evenodd"/><path fill="#6dc745" d="m660.26245 202.77953l0 0c0 -2.1482544 1.7415161 -3.8897552 3.8897705 -3.8897552l0 0c1.0316162 0 2.020996 0.4098053 2.7504883 1.1392822c0.7294922 0.72946167 1.1392822 1.7188416 1.1392822 2.750473l0 0c0 2.1482544 -1.7415161 3.8897705 -3.8897705 3.8897705l0 0c-2.1482544 0 -3.8897705 -1.7415161 -3.8897705 -3.8897705z" fill-rule="evenodd"/><path fill="#6dc745" d="m676.26245 218.77953l0 0c0 -2.1482544 1.7415161 -3.8897552 3.8897705 -3.8897552l0 0c1.0316162 0 2.020996 0.4098053 2.7504883 1.1392822c0.7294922 0.72946167 1.1392822 1.7188416 1.1392822 2.750473l0 0c0 2.1482544 -1.7415161 3.8897705 -3.8897705 3.8897705l0 0c-2.1482544 0 -3.8897705 -1.7415161 -3.8897705 -3.8897705z" fill-rule="evenodd"/><path fill="#6dc745" d="m669.3736 210.77953l0 0c0 -2.1482544 1.7415161 -3.8897552 3.8897705 -3.8897552l0 0c1.0316162 0 2.020996 0.4098053 2.7504272 1.1392822c0.7294922 0.72946167 1.1392822 1.7188416 1.1392822 2.750473l0 0c0 2.1482544 -1.7414551 3.8897705 -3.8897095 3.8897705l0 0c-2.1482544 0 -3.8897705 -1.7415161 -3.8897705 -3.8897705z" fill-rule="evenodd"/><path fill="#6dc745" d="m668.26245 226.77953l0 0c0 -2.1482544 1.7415161 -3.8897552 3.8897705 -3.8897552l0 0c1.0316162 0 2.020996 0.4098053 2.7504883 1.1392822c0.7294922 0.72946167 1.1392822 1.7188416 1.1392822 2.750473l0 0c0 2.1482544 -1.7415161 3.8897705 -3.8897705 3.8897705l0 0c-2.1482544 0 -3.8897705 -1.7415161 -3.8897705 -3.8897705z" fill-rule="evenodd"/><path fill="#6dc745" d="m684.26245 234.77953l0 0c0 -2.1482544 1.7415161 -3.8897552 3.8897705 -3.8897552l0 0c1.0316162 0 2.020996 0.4098053 2.7504883 1.1392822c0.7294922 0.72946167 1.1392822 1.7188416 1.1392822 2.750473l0 0c0 2.1482544 -1.7415161 3.8897705 -3.8897705 3.8897705l0 0c-2.1482544 0 -3.8897705 -1.7415161 -3.8897705 -3.8897705z" fill-rule="evenodd"/><path fill="#6dc745" d="m684.26245 178.32808l0 0c0 -2.1482544 1.7415161 -3.8897552 3.8897705 -3.8897552l0 0c1.0316162 0 2.020996 0.4098053 2.7504883 1.1392822c0.7294922 0.7294769 1.1392822 1.7188416 1.1392822 2.750473l0 0c0 2.1482544 -1.7415161 3.8897705 -3.8897705 3.8897705l0 0c-2.1482544 0 -3.8897705 -1.7415161 -3.8897705 -3.8897705z" fill-rule="evenodd"/><path fill="#6dc745" d="m614.3727 226.77953l0 0c0 -2.1482544 1.7415161 -3.8897552 3.8897705 -3.8897552l0 0c1.0316162 0 2.020996 0.4098053 2.7504883 1.1392822c0.7294922 0.72946167 1.1392822 1.7188416 1.1392822 2.750473l0 0c0 2.1482544 -1.7415161 3.8897705 -3.8897705 3.8897705l0 0c-2.1482544 0 -3.8897705 -1.7415161 -3.8897705 -3.8897705z" fill-rule="evenodd"/><path fill="#6dc745" d="m625.3753 234.77953l0 0c0 -2.1482544 1.7415161 -3.8897552 3.8897705 -3.8897552l0 0c1.0316162 0 2.020996 0.4098053 2.7504883 1.1392822c0.7294922 0.72946167 1.1392822 1.7188416 1.1392822 2.750473l0 0c0 2.1482544 -1.7415161 3.8897705 -3.8897705 3.8897705l0 0c-2.1482544 0 -3.8897705 -1.7415161 -3.8897705 -3.8897705z" fill-rule="evenodd"/><path fill="#6dc745" d="m611.5971 244.5328l0 0c0 -2.1482544 1.7415161 -3.8897552 3.8897705 -3.8897552l0 0c1.0316162 0 2.020996 0.4098053 2.7504883 1.1392822c0.72943115 0.72946167 1.1392822 1.7188416 1.1392822 2.750473l0 0c0 2.1482544 -1.7415161 3.8897705 -3.8897705 3.8897705l0 0c-2.1482544 0 -3.8897705 -1.7415161 -3.8897705 -3.8897705z" fill-rule="evenodd"/><path fill="#6dc745" d="m641.31757 224.22572l0 0c0 -2.1482544 1.7415161 -3.8897705 3.8897705 -3.8897705l0 0c1.0316162 0 2.020996 0.40982056 2.7504883 1.1392975c0.7294922 0.72946167 1.1392822 1.7188416 1.1392822 2.750473l0 0c0 2.1482544 -1.7415161 3.8897552 -3.8897705 3.8897552l0 0c-2.1482544 0 -3.8897705 -1.7415009 -3.8897705 -3.8897552z" fill-rule="evenodd"/><path fill="#6dc745" d="m625.3753 258.55905l0 0c0 -2.1482544 1.7415161 -3.8897552 3.8897705 -3.8897552l0 0c1.0316162 0 2.020996 0.4098053 2.7504883 1.1392822c0.7294922 0.7294769 1.1392822 1.7188568 1.1392822 2.750473l0 0c0 2.1482544 -1.7415161 3.8897705 -3.8897705 3.8897705l0 0c-2.1482544 0 -3.8897705 -1.7415161 -3.8897705 -3.8897705z" fill-rule="evenodd"/><path fill="#6dc745" d="m606.5932 264.44095l0 0c0 -2.1482544 1.7414551 -3.8897705 3.8897095 -3.8897705l0 0c1.0316772 0 2.0210571 0.40982056 2.7504883 1.1392822c0.7294922 0.7294922 1.1392822 1.7188416 1.1392822 2.7504883l0 0c0 2.1482544 -1.7414551 3.8897705 -3.8897705 3.8897705l0 0c-2.1482544 0 -3.8897095 -1.7415161 -3.8897095 -3.8897705z" fill-rule="evenodd"/><path fill="#6dc745" d="m578.7087 273.88977l0 0c0 -2.1482544 1.7415161 -3.8897705 3.8897705 -3.8897705l0 0c1.0316162 0 2.020996 0.40982056 2.7504272 1.1392822c0.7294922 0.72946167 1.1392822 1.7188416 1.1392822 2.7504883l0 0c0 2.1482544 -1.7414551 3.8897705 -3.8897095 3.8897705l0 0c-2.1482544 0 -3.8897705 -1.7415161 -3.8897705 -3.8897705z" fill-rule="evenodd"/><path fill="#6dc745" d="m570.92914 295.77692l0 0c0 -2.148285 1.7415161 -3.8897705 3.8897705 -3.8897705l0 0c1.0316162 0 2.020996 0.40982056 2.7504883 1.1392822c0.72943115 0.72946167 1.1392822 1.7188416 1.1392822 2.7504883l0 0c0 2.1482544 -1.7415161 3.88974 -3.8897705 3.88974l0 0c-2.1482544 0 -3.8897705 -1.7414856 -3.8897705 -3.88974z" fill-rule="evenodd"/><path fill="#6dc745" d="m548.48553 329.37534l0 0c0 -2.1482544 1.7415161 -3.8897705 3.8897705 -3.8897705l0 0c1.0316772 0 2.0210571 0.40982056 2.7504883 1.1392822c0.7294922 0.72946167 1.1392822 1.7188416 1.1392822 2.7504883l0 0c0 2.1482544 -1.7415161 3.8897705 -3.8897705 3.8897705l0 0c-2.1482544 0 -3.8897705 -1.7415161 -3.8897705 -3.8897705z" fill-rule="evenodd"/><path fill="#6dc745" d="m633.15485 210.77953l0 0c0 -2.1482544 1.7415161 -3.8897552 3.8897705 -3.8897552l0 0c1.0316162 0 2.020996 0.4098053 2.7504883 1.1392822c0.7294922 0.72946167 1.1392822 1.7188416 1.1392822 2.750473l0 0c0 2.1482544 -1.7415161 3.8897705 -3.8897705 3.8897705l0 0c-2.1482544 0 -3.8897705 -1.7415161 -3.8897705 -3.8897705z" fill-rule="evenodd"/><path fill="#6dc745" d="m687.7087 206.5538l0 0c0 -2.1482544 1.7415161 -3.8897552 3.8897705 -3.8897552l0 0c1.0316162 0 2.020996 0.4098053 2.7504272 1.1392822c0.7294922 0.7294769 1.1392822 1.7188416 1.1392822 2.750473l0 0c0 2.1482544 -1.7414551 3.8897705 -3.8897095 3.8897705l0 0c-2.1482544 0 -3.8897705 -1.7415161 -3.8897705 -3.8897705z" fill-rule="evenodd"/><path fill="#6dc745" d="m652.4829 244.5328l0 0c0 -2.1482544 1.7415161 -3.8897552 3.8897705 -3.8897552l0 0c1.0316772 0 2.0210571 0.4098053 2.7504883 1.1392822c0.7294922 0.72946167 1.1392822 1.7188416 1.1392822 2.750473l0 0c0 2.1482544 -1.7415161 3.8897705 -3.8897705 3.8897705l0 0c-2.1482544 0 -3.8897705 -1.7415161 -3.8897705 -3.8897705z" fill-rule="evenodd"/><path fill="#6dc745" d="m574.7087 341.12598l0 0c0 -2.1482544 1.7415161 -3.8897705 3.8897705 -3.8897705l0 0c1.0316162 0 2.020996 0.40982056 2.7504272 1.1393127c0.7294922 0.72946167 1.1392822 1.7188416 1.1392822 2.7504578l0 0c0 2.1482544 -1.7414551 3.8897705 -3.8897095 3.8897705l0 0c-2.1482544 0 -3.8897705 -1.7415161 -3.8897705 -3.8897705z" fill-rule="evenodd"/><path fill="#6dc745" d="m540.70605 310.0525l0 0c0 -2.1482544 1.7415161 -3.8897705 3.8897705 -3.8897705l0 0c1.0316162 0 2.020996 0.40982056 2.7504272 1.1392822c0.7294922 0.7294922 1.1392822 1.7188721 1.1392822 2.7504883l0 0c0 2.1482544 -1.7414551 3.8897705 -3.8897095 3.8897705l0 0c-2.1482544 0 -3.8897705 -1.7415161 -3.8897705 -3.8897705z" fill-rule="evenodd"/><path fill="#6dc745" d="m525.5407 355.3517l0 0c0 -2.1482544 1.7414551 -3.8897705 3.8897095 -3.8897705l0 0c1.0316772 0 2.0210571 0.40982056 2.7504883 1.1392822c0.7294922 0.72946167 1.1392822 1.7188416 1.1392822 2.7504883l0 0c0 2.1482544 -1.7415161 3.88974 -3.8897705 3.88974l0 0c-2.1482544 0 -3.8897095 -1.7414856 -3.8897095 -3.88974z" fill-rule="evenodd"/><path fill="#6dc745" d="m668.26245 185.0l0 0c0 -2.1482544 1.7415161 -3.8897705 3.8897705 -3.8897705l0 0c1.0316162 0 2.020996 0.40982056 2.7504883 1.1392975c0.7294922 0.72946167 1.1392822 1.7188416 1.1392822 2.750473l0 0c0 2.1482544 -1.7415161 3.8897705 -3.8897705 3.8897705l0 0c-2.1482544 0 -3.8897705 -1.7415161 -3.8897705 -3.8897705z" fill-rule="evenodd"/><path fill="#6dc745" d="m699.93176 236.75328l0 0c0 -2.1482544 1.7415161 -3.8897705 3.8897705 -3.8897705l0 0c1.0316162 0 2.020996 0.40982056 2.7504883 1.1392975c0.72943115 0.72946167 1.1392822 1.7188416 1.1392822 2.750473l0 0c0 2.1482544 -1.7415161 3.8897705 -3.8897705 3.8897705l0 0c-2.1482544 0 -3.8897705 -1.7415161 -3.8897705 -3.8897705z" fill-rule="evenodd"/><path fill="#6dc745" d="m703.70605 189.77428l0 0c0 -2.1482544 1.7415161 -3.8897552 3.8897705 -3.8897552l0 0c1.0316162 0 2.020996 0.4098053 2.7504272 1.1392822c0.7294922 0.72946167 1.1392822 1.7188416 1.1392822 2.750473l0 0c0 2.1482544 -1.7414551 3.8897705 -3.8897095 3.8897705l0 0c-2.1482544 0 -3.8897705 -1.7415161 -3.8897705 -3.8897705z" fill-rule="evenodd"/><path fill="#000000" d="m241.5033 163.33421l2.141739 0l0 226.3307l-2.141739 0z" fill-rule="evenodd"/><path stroke="#000000" stroke-width="1.0" stroke-linejoin="round" stroke-linecap="butt" d="m241.5033 163.33421l2.141739 0l0 226.3307l-2.141739 0z" fill-rule="evenodd"/><path fill="#000000" d="m455.08072 377.05774l0 2.1417236l-226.3307 0l0 -2.1417236z" fill-rule="evenodd"/><path stroke="#000000" stroke-width="1.0" stroke-linejoin="round" stroke-linecap="butt" d="m455.08072 377.05774l0 2.1417236l-226.3307 0l0 -2.1417236z" fill-rule="evenodd"/><path fill="#000000" d="m521.5033 163.33421l2.1417236 0l0 226.3307l-2.1417236 0z" fill-rule="evenodd"/><path stroke="#000000" stroke-width="1.0" stroke-linejoin="round" stroke-linecap="butt" d="m521.5033 163.33421l2.1417236 0l0 226.3307l-2.1417236 0z" fill-rule="evenodd"/><path fill="#000000" d="m735.08075 377.05774l0 2.1417236l-226.33072 0l0 -2.1417236z" fill-rule="evenodd"/><path stroke="#000000" stroke-width="1.0" stroke-linejoin="round" stroke-linecap="butt" d="m735.08075 377.05774l0 2.1417236l-226.33072 0l0 -2.1417236z" fill-rule="evenodd"/><path fill="#000000" fill-opacity="0.0" d="m234.83727 380.2257l76.66142 0l0 31.118134l-76.66142 0z" fill-rule="evenodd"/><path fill="#000000" d="m257.24353 402.70477l-2.9375153 0l-1.171875 -3.03125l-5.328125 0l-1.109375 3.03125l-2.859375 0l5.203125 -13.359375l2.84375 0l5.3593903 13.359375zm-4.9687653 -5.28125l-1.84375 -4.953125l-1.796875 4.953125l3.640625 0zm5.144821 5.28125l3.484375 -4.984375l-3.34375 -4.6875l3.125 0l1.71875 2.65625l1.796875 -2.65625l3.015625 0l-3.28125 4.578125l3.578125 5.09375l-3.140625 0l-1.96875 -3.0l-1.984375 3.0l-3.0 0zm11.610107 -10.984375l0 -2.375l2.5625 0l0 2.375l-2.5625 0zm0 10.984375l0 -9.671875l2.5625 0l0 9.671875l-2.5625 0zm4.2770386 -2.765625l2.5625 -0.390625q0.171875 0.75 0.671875 1.140625q0.5 0.390625 1.40625 0.390625q0.984375 0 1.484375 -0.375q0.34375 -0.25 0.34375 -0.671875q0 -0.296875 -0.1875 -0.484375q-0.1875 -0.1875 -0.859375 -0.34375q-3.09375 -0.6875 -3.921875 -1.25q-1.140625 -0.78125 -1.140625 -2.171875q0 -1.265625 0.984375 -2.109375q1.0 -0.859375 3.078125 -0.859375q1.984375 0 2.953125 0.65625q0.96875 0.640625 1.328125 1.90625l-2.40625 0.4375q-0.15625 -0.5625 -0.59375 -0.859375q-0.421875 -0.296875 -1.234375 -0.296875q-1.0 0 -1.4375 0.28125q-0.296875 0.203125 -0.296875 0.515625q0 0.265625 0.25 0.46875q0.34375 0.25 2.390625 0.71875q2.046875 0.453125 2.859375 1.140625q0.796875 0.671875 0.796875 1.890625q0 1.34375 -1.109375 2.296875q-1.109375 0.953125 -3.28125 0.953125q-1.984375 0 -3.140625 -0.796875q-1.140625 -0.8125 -1.5 -2.1875z" fill-rule="nonzero"/><path fill="#000000" fill-opacity="0.0" d="m386.68503 139.00612l91.93701 0l0 31.118118l-91.93701 0z" fill-rule="evenodd"/><path fill="#b6d7a8" d="m409.09128 161.48518l-2.9375 0l-1.171875 -3.03125l-5.328125 0l-1.109375 3.03125l-2.859375 0l5.203125 -13.359375l2.84375 0l5.359375 13.359375zm-4.96875 -5.28125l-1.84375 -4.953125l-1.796875 4.953125l3.640625 0zm5.1448364 5.28125l3.484375 -4.984375l-3.34375 -4.6875l3.125 0l1.71875 2.65625l1.796875 -2.65625l3.015625 0l-3.28125 4.578125l3.578125 5.09375l-3.140625 0l-1.96875 -3.0l-1.984375 3.0l-3.0 0zm17.203827 -3.078125l2.546875 0.421875q-0.484375 1.40625 -1.546875 2.140625q-1.0625 0.734375 -2.65625 0.734375q-2.515625 0 -3.734375 -1.65625q-0.953125 -1.3125 -0.953125 -3.328125q0 -2.40625 1.25 -3.765625q1.265625 -1.359375 3.1875 -1.359375q2.15625 0 3.40625 1.421875q1.25 1.421875 1.1875 4.375l-6.40625 0q0.03125 1.140625 0.609375 1.78125q0.59375 0.625 1.484375 0.625q0.59375 0 1.0 -0.328125q0.421875 -0.328125 0.625 -1.0625zm0.15625 -2.59375q-0.03125 -1.109375 -0.578125 -1.6875q-0.546875 -0.578125 -1.328125 -0.578125q-0.84375 0 -1.390625 0.609375q-0.546875 0.609375 -0.53125 1.65625l3.828125 0zm3.7194824 2.90625l2.5625 -0.390625q0.171875 0.75 0.671875 1.140625q0.5 0.390625 1.40625 0.390625q0.984375 0 1.484375 -0.375q0.34375 -0.25 0.34375 -0.671875q0 -0.296875 -0.1875 -0.484375q-0.1875 -0.1875 -0.859375 -0.34375q-3.09375 -0.6875 -3.921875 -1.25q-1.140625 -0.78125 -1.140625 -2.171875q0 -1.265625 0.984375 -2.109375q1.0 -0.859375 3.078125 -0.859375q1.984375 0 2.953125 0.65625q0.96875 0.640625 1.328125 1.90625l-2.40625 0.4375q-0.15625 -0.5625 -0.59375 -0.859375q-0.421875 -0.296875 -1.234375 -0.296875q-1.0 0 -1.4375 0.28125q-0.296875 0.203125 -0.296875 0.515625q0 0.265625 0.25 0.46875q0.34375 0.25 2.390625 0.71875q2.046875 0.453125 2.859375 1.140625q0.796875 0.671875 0.796875 1.890625q0 1.34375 -1.109375 2.296875q-1.109375 0.953125 -3.28125 0.953125q-1.984375 0 -3.140625 -0.796875q-1.140625 -0.8125 -1.5 -2.1875zm22.465271 2.765625l-2.5625 0l0 -9.640625q-1.40625 1.3125 -3.3125 1.9375l0 -2.328125q1.015625 -0.328125 2.1875 -1.234375q1.171875 -0.921875 1.609375 -2.140625l2.078125 0l0 13.40625z" fill-rule="nonzero"/><path fill="#000000" fill-opacity="0.0" d="m386.68503 155.00612l91.93701 0l0 31.118118l-91.93701 0z" fill-rule="evenodd"/><path fill="#72a75b" d="m409.09128 177.48518l-2.9375 0l-1.171875 -3.03125l-5.328125 0l-1.109375 3.03125l-2.859375 0l5.203125 -13.359375l2.84375 0l5.359375 13.359375zm-4.96875 -5.28125l-1.84375 -4.953125l-1.796875 4.953125l3.640625 0zm5.1448364 5.28125l3.484375 -4.984375l-3.34375 -4.6875l3.125 0l1.71875 2.65625l1.796875 -2.65625l3.015625 0l-3.28125 4.578125l3.578125 5.09375l-3.140625 0l-1.96875 -3.0l-1.984375 3.0l-3.0 0zm17.203827 -3.078125l2.546875 0.421875q-0.484375 1.40625 -1.546875 2.140625q-1.0625 0.734375 -2.65625 0.734375q-2.515625 0 -3.734375 -1.65625q-0.953125 -1.3125 -0.953125 -3.328125q0 -2.40625 1.25 -3.765625q1.265625 -1.359375 3.1875 -1.359375q2.15625 0 3.40625 1.421875q1.25 1.421875 1.1875 4.375l-6.40625 0q0.03125 1.140625 0.609375 1.78125q0.59375 0.625 1.484375 0.625q0.59375 0 1.0 -0.328125q0.421875 -0.328125 0.625 -1.0625zm0.15625 -2.59375q-0.03125 -1.109375 -0.578125 -1.6875q-0.546875 -0.578125 -1.328125 -0.578125q-0.84375 0 -1.390625 0.609375q-0.546875 0.609375 -0.53125 1.65625l3.828125 0zm3.7194824 2.90625l2.5625 -0.390625q0.171875 0.75 0.671875 1.140625q0.5 0.390625 1.40625 0.390625q0.984375 0 1.484375 -0.375q0.34375 -0.25 0.34375 -0.671875q0 -0.296875 -0.1875 -0.484375q-0.1875 -0.1875 -0.859375 -0.34375q-3.09375 -0.6875 -3.921875 -1.25q-1.140625 -0.78125 -1.140625 -2.171875q0 -1.265625 0.984375 -2.109375q1.0 -0.859375 3.078125 -0.859375q1.984375 0 2.953125 0.65625q0.96875 0.640625 1.328125 1.90625l-2.40625 0.4375q-0.15625 -0.5625 -0.59375 -0.859375q-0.421875 -0.296875 -1.234375 -0.296875q-1.0 0 -1.4375 0.28125q-0.296875 0.203125 -0.296875 0.515625q0 0.265625 0.25 0.46875q0.34375 0.25 2.390625 0.71875q2.046875 0.453125 2.859375 1.140625q0.796875 0.671875 0.796875 1.890625q0 1.34375 -1.109375 2.296875q-1.109375 0.953125 -3.28125 0.953125q-1.984375 0 -3.140625 -0.796875q-1.140625 -0.8125 -1.5 -2.1875zm24.559021 0.390625l0 2.375l-8.96875 0q0.140625 -1.34375 0.859375 -2.546875q0.734375 -1.21875 2.890625 -3.203125q1.734375 -1.625 2.125 -2.1875q0.53125 -0.796875 0.53125 -1.578125q0 -0.84375 -0.46875 -1.296875q-0.453125 -0.46875 -1.265625 -0.46875q-0.796875 0 -1.28125 0.484375q-0.46875 0.46875 -0.546875 1.59375l-2.546875 -0.25q0.234375 -2.109375 1.421875 -3.03125q1.203125 -0.921875 3.015625 -0.921875q1.96875 0 3.09375 1.0625q1.140625 1.0625 1.140625 2.65625q0 0.890625 -0.328125 1.71875q-0.3125 0.8125 -1.015625 1.703125q-0.46875 0.59375 -1.6875 1.703125q-1.203125 1.109375 -1.53125 1.484375q-0.3125 0.359375 -0.515625 0.703125l5.078125 0z" fill-rule="nonzero"/><path fill="#000000" fill-opacity="0.0" d="m666.29395 138.43307l91.93701 0l0 31.118103l-91.93701 0z" fill-rule="evenodd"/><path fill="#6dc745" d="m688.7002 160.91212l-2.9375 0l-1.171875 -3.03125l-5.328125 0l-1.109375 3.03125l-2.859375 0l5.203125 -13.359375l2.84375 0l5.359375 13.359375zm-4.96875 -5.28125l-1.84375 -4.953125l-1.796875 4.953125l3.640625 0zm5.1448364 5.28125l3.484375 -4.984375l-3.34375 -4.6875l3.125 0l1.71875 2.65625l1.796875 -2.65625l3.015625 0l-3.28125 4.578125l3.578125 5.09375l-3.140625 0l-1.96875 -3.0l-1.984375 3.0l-3.0 0zm17.203857 -3.078125l2.546875 0.421875q-0.484375 1.40625 -1.546875 2.140625q-1.0625 0.734375 -2.65625 0.734375q-2.515625 0 -3.734375 -1.65625q-0.953125 -1.3125 -0.953125 -3.328125q0 -2.40625 1.25 -3.765625q1.265625 -1.359375 3.1875 -1.359375q2.15625 0 3.40625 1.421875q1.25 1.421875 1.1875 4.375l-6.40625 0q0.03125 1.140625 0.609375 1.78125q0.59375 0.625 1.484375 0.625q0.59375 0 1.0 -0.328125q0.421875 -0.328125 0.625 -1.0625zm0.15625 -2.59375q-0.03125 -1.109375 -0.578125 -1.6875q-0.546875 -0.578125 -1.328125 -0.578125q-0.84375 0 -1.390625 0.609375q-0.546875 0.609375 -0.53125 1.65625l3.828125 0zm3.7194824 2.90625l2.5625 -0.390625q0.171875 0.75 0.671875 1.140625q0.5 0.390625 1.40625 0.390625q0.984375 0 1.484375 -0.375q0.34375 -0.25 0.34375 -0.671875q0 -0.296875 -0.1875 -0.484375q-0.1875 -0.1875 -0.859375 -0.34375q-3.09375 -0.6875 -3.921875 -1.25q-1.140625 -0.78125 -1.140625 -2.171875q0 -1.265625 0.984375 -2.109375q1.0 -0.859375 3.078125 -0.859375q1.984375 0 2.953125 0.65625q0.96875 0.640625 1.328125 1.90625l-2.40625 0.4375q-0.15625 -0.5625 -0.59375 -0.859375q-0.421875 -0.296875 -1.234375 -0.296875q-1.0 0 -1.4375 0.28125q-0.296875 0.203125 -0.296875 0.515625q0 0.265625 0.25 0.46875q0.34375 0.25 2.390625 0.71875q2.046875 0.453125 2.859375 1.140625q0.796875 0.671875 0.796875 1.890625q0 1.34375 -1.109375 2.296875q-1.109375 0.953125 -3.28125 0.953125q-1.984375 0 -3.140625 -0.796875q-1.140625 -0.8125 -1.5 -2.1875zm15.824646 -0.78125l2.46875 -0.296875q0.125 0.953125 0.640625 1.453125q0.53125 0.5 1.265625 0.5q0.78125 0 1.328125 -0.59375q0.546875 -0.609375 0.546875 -1.640625q0 -0.953125 -0.53125 -1.515625q-0.515625 -0.578125 -1.25 -0.578125q-0.5 0 -1.1875 0.203125l0.28125 -2.09375q1.046875 0.03125 1.59375 -0.4375q0.546875 -0.484375 0.546875 -1.28125q0 -0.671875 -0.40625 -1.078125q-0.390625 -0.40625 -1.0625 -0.40625q-0.65625 0 -1.125 0.46875q-0.453125 0.453125 -0.5625 1.328125l-2.359375 -0.40625q0.25 -1.203125 0.734375 -1.921875q0.5 -0.734375 1.390625 -1.140625q0.890625 -0.421875 2.0 -0.421875q1.875 0 3.015625 1.203125q0.9375 0.984375 0.9375 2.21875q0 1.765625 -1.921875 2.8125q1.15625 0.234375 1.84375 1.09375q0.6875 0.859375 0.6875 2.0625q0 1.765625 -1.296875 3.015625q-1.28125 1.234375 -3.1875 1.234375q-1.8125 0 -3.015625 -1.046875q-1.1875 -1.046875 -1.375 -2.734375z" fill-rule="nonzero"/><path fill="#000000" fill-opacity="0.0" d="m518.4873 378.79352l76.66144 0l0 31.118103l-76.66144 0z" fill-rule="evenodd"/><path fill="#000000" d="m540.89355 401.27258l-2.9375 0l-1.171875 -3.03125l-5.328125 0l-1.109375 3.03125l-2.859375 0l5.203125 -13.359375l2.84375 0l5.359375 13.359375zm-4.96875 -5.28125l-1.84375 -4.953125l-1.796875 4.953125l3.640625 0zm5.1448364 5.28125l3.484375 -4.984375l-3.34375 -4.6875l3.125 0l1.71875 2.65625l1.796875 -2.65625l3.015625 0l-3.28125 4.578125l3.578125 5.09375l-3.140625 0l-1.96875 -3.0l-1.984375 3.0l-3.0 0zm11.610107 -10.984375l0 -2.375l2.5625 0l0 2.375l-2.5625 0zm0 10.984375l0 -9.671875l2.5625 0l0 9.671875l-2.5625 0zm4.2770386 -2.765625l2.5625 -0.390625q0.171875 0.75 0.671875 1.140625q0.5 0.390625 1.40625 0.390625q0.984375 0 1.484375 -0.375q0.34375 -0.25 0.34375 -0.671875q0 -0.296875 -0.1875 -0.484375q-0.1875 -0.1875 -0.859375 -0.34375q-3.09375 -0.6875 -3.921875 -1.25q-1.140625 -0.78125 -1.140625 -2.171875q0 -1.265625 0.984375 -2.109375q1.0 -0.859375 3.078125 -0.859375q1.984375 0 2.953125 0.65625q0.96875 0.640625 1.328125 1.90625l-2.40625 0.4375q-0.15625 -0.5625 -0.59375 -0.859375q-0.421875 -0.296875 -1.234375 -0.296875q-1.0 0 -1.4375 0.28125q-0.296875 0.203125 -0.296875 0.515625q0 0.265625 0.25 0.46875q0.34375 0.25 2.390625 0.71875q2.046875 0.453125 2.859375 1.140625q0.796875 0.671875 0.796875 1.890625q0 1.34375 -1.109375 2.296875q-1.109375 0.953125 -3.28125 0.953125q-1.984375 0 -3.140625 -0.796875q-1.140625 -0.8125 -1.5 -2.1875z" fill-rule="nonzero"/></g></svg>